<svg width="104" height="19" viewBox="0 0 104 19" fill="none" xmlns="http://www.w3.org/2000/svg">
<path d="M13.6474 10.9051C13.4502 11.0963 13.3595 11.3728 13.4045 11.6439L14.0815 15.3911C14.1386 15.7087 14.0046 16.0301 13.7388 16.2136C13.4783 16.404 13.1318 16.4269 12.8477 16.2745L9.47455 14.5152C9.35726 14.4528 9.22703 14.4192 9.09375 14.4154H8.88735C8.81576 14.4261 8.74569 14.4489 8.68171 14.484L5.30778 16.2517C5.14099 16.3355 4.95211 16.3652 4.76704 16.3355C4.31617 16.2502 4.01533 15.8206 4.08921 15.3675L4.76704 11.6203C4.81197 11.3469 4.72134 11.0689 4.52409 10.8747L1.77391 8.20902C1.54391 7.98587 1.46394 7.65076 1.56904 7.34839C1.6711 7.04679 1.93157 6.82669 2.24611 6.77718L6.03131 6.22806C6.3192 6.19835 6.57205 6.02318 6.70153 5.76423L8.36945 2.34457C8.40906 2.26841 8.46009 2.19834 8.52178 2.13893L8.59032 2.08562C8.62612 2.04602 8.66724 2.01327 8.71294 1.98661L8.79596 1.95615L8.92543 1.90283H9.24607C9.53243 1.93254 9.78453 2.1039 9.91628 2.3598L11.6063 5.76423C11.7282 6.01328 11.965 6.18617 12.2384 6.22806L16.0236 6.77718C16.3435 6.82288 16.6108 7.04375 16.7167 7.34839C16.8165 7.6538 16.7304 7.98891 16.4958 8.20902L13.6474 10.9051Z" fill="#F6B76F" style="fill:#F6B76F;fill:color(display-p3 0.9647 0.7176 0.4353);fill-opacity:1;"/>
<path d="M34.9697 10.9061C34.7724 11.0973 34.6818 11.3738 34.7267 11.6449L35.4038 15.392C35.4609 15.7096 35.3269 16.031 35.0611 16.2146C34.8006 16.405 34.4541 16.4278 34.17 16.2755L30.7968 14.5162C30.6795 14.4537 30.5493 14.4202 30.416 14.4164H30.2096C30.138 14.4271 30.068 14.4499 30.004 14.485L26.63 16.2527C26.4633 16.3365 26.2744 16.3662 26.0893 16.3365C25.6384 16.2512 25.3376 15.8216 25.4115 15.3684L26.0893 11.6213C26.1342 11.3479 26.0436 11.0699 25.8464 10.8757L23.0962 8.21C22.8662 7.98684 22.7862 7.65173 22.8913 7.34937C22.9934 7.04777 23.2538 6.82766 23.5684 6.77816L27.3536 6.22903C27.6415 6.19933 27.8943 6.02416 28.0238 5.76521L29.6917 2.34555C29.7313 2.26938 29.7824 2.19932 29.844 2.13991L29.9126 2.0866C29.9484 2.04699 29.9895 2.01424 30.0352 1.98759L30.1182 1.95712L30.2477 1.90381H30.5683C30.8547 1.93351 31.1068 2.10488 31.2385 2.36078L32.9286 5.76521C33.0504 6.01426 33.2873 6.18714 33.5607 6.22903L37.3459 6.77816C37.6658 6.82385 37.9331 7.04472 38.039 7.34937C38.1387 7.65478 38.0527 7.98989 37.8181 8.21L34.9697 10.9061Z" fill="#F6B76F" style="fill:#F6B76F;fill:color(display-p3 0.9647 0.7176 0.4353);fill-opacity:1;"/>
<path d="M56.2978 10.9061C56.1006 11.0973 56.0099 11.3738 56.0549 11.6449L56.7319 15.392C56.789 15.7096 56.655 16.031 56.3892 16.2146C56.1287 16.405 55.7822 16.4278 55.4981 16.2755L52.1249 14.5162C52.0077 14.4537 51.8774 14.4202 51.7441 14.4164H51.5377C51.4662 14.4271 51.3961 14.4499 51.3321 14.485L47.9582 16.2527C47.7914 16.3365 47.6025 16.3662 47.4174 16.3365C46.9666 16.2512 46.6657 15.8216 46.7396 15.3684L47.4174 11.6213C47.4624 11.3479 47.3717 11.0699 47.1745 10.8757L44.4243 8.21C44.1943 7.98684 44.1143 7.65173 44.2194 7.34937C44.3215 7.04777 44.582 6.82766 44.8965 6.77816L48.6817 6.22903C48.9696 6.19933 49.2224 6.02416 49.3519 5.76521L51.0198 2.34555C51.0595 2.26938 51.1105 2.19932 51.1722 2.13991L51.2407 2.0866C51.2765 2.04699 51.3176 2.01424 51.3633 1.98759L51.4464 1.95712L51.5758 1.90381H51.8965C52.1828 1.93351 52.4349 2.10488 52.5667 2.36078L54.2567 5.76521C54.3786 6.01426 54.6154 6.18714 54.8888 6.22903L58.674 6.77816C58.9939 6.82385 59.2612 7.04472 59.3671 7.34937C59.4669 7.65478 59.3808 7.98989 59.1462 8.21L56.2978 10.9061Z" fill="#F6B76F" style="fill:#F6B76F;fill:color(display-p3 0.9647 0.7176 0.4353);fill-opacity:1;"/>
<path d="M77.625 10.9061C77.4277 11.0973 77.3371 11.3738 77.382 11.6449L78.0591 15.392C78.1162 15.7096 77.9822 16.031 77.7164 16.2146C77.4559 16.405 77.1093 16.4278 76.8253 16.2755L73.4521 14.5162C73.3348 14.4537 73.2046 14.4202 73.0713 14.4164H72.8649C72.7933 14.4271 72.7232 14.4499 72.6593 14.485L69.2853 16.2527C69.1185 16.3365 68.9297 16.3662 68.7446 16.3365C68.2937 16.2512 67.9929 15.8216 68.0667 15.3684L68.7446 11.6213C68.7895 11.3479 68.6989 11.0699 68.5016 10.8757L65.7515 8.21C65.5214 7.98684 65.4415 7.65173 65.5466 7.34937C65.6486 7.04777 65.9091 6.82766 66.2237 6.77816L70.0089 6.22903C70.2967 6.19933 70.5496 6.02416 70.6791 5.76521L72.347 2.34555C72.3866 2.26938 72.4376 2.19932 72.4993 2.13991L72.5679 2.0866C72.6037 2.04699 72.6448 2.01424 72.6905 1.98759L72.7735 1.95712L72.903 1.90381H73.2236C73.51 1.93351 73.7621 2.10488 73.8938 2.36078L75.5838 5.76521C75.7057 6.01426 75.9426 6.18714 76.216 6.22903L80.0012 6.77816C80.3211 6.82385 80.5884 7.04472 80.6942 7.34937C80.794 7.65478 80.708 7.98989 80.4734 8.21L77.625 10.9061Z" fill="#F6B76F" style="fill:#F6B76F;fill:color(display-p3 0.9647 0.7176 0.4353);fill-opacity:1;"/>
<path d="M98.9472 10.9061C98.75 11.0973 98.6593 11.3738 98.7043 11.6449L99.3813 15.392C99.4385 15.7096 99.3044 16.031 99.0386 16.2146C98.7781 16.405 98.4316 16.4278 98.1475 16.2755L94.7744 14.5162C94.6571 14.4537 94.5268 14.4202 94.3936 14.4164H94.1872C94.1156 14.4271 94.0455 14.4499 93.9815 14.485L90.6076 16.2527C90.4408 16.3365 90.2519 16.3662 90.0668 16.3365C89.616 16.2512 89.3151 15.8216 89.389 15.3684L90.0668 11.6213C90.1118 11.3479 90.0211 11.0699 89.8239 10.8757L87.0737 8.21C86.8437 7.98684 86.7637 7.65173 86.8688 7.34937C86.9709 7.04777 87.2314 6.82766 87.5459 6.77816L91.3311 6.22903C91.619 6.19933 91.8719 6.02416 92.0013 5.76521L93.6693 2.34555C93.7089 2.26938 93.7599 2.19932 93.8216 2.13991L93.8901 2.0866C93.9259 2.04699 93.9671 2.01424 94.0128 1.98759L94.0958 1.95712L94.2252 1.90381H94.5459C94.8322 1.93351 95.0843 2.10488 95.2161 2.36078L96.9061 5.76521C97.028 6.01426 97.2648 6.18714 97.5382 6.22903L101.323 6.77816C101.643 6.82385 101.911 7.04472 102.017 7.34937C102.116 7.65478 102.03 7.98989 101.796 8.21L98.9472 10.9061Z" fill="#F6B76F" style="fill:#F6B76F;fill:color(display-p3 0.9647 0.7176 0.4353);fill-opacity:1;"/>
</svg>
